<?xml version="1.0" encoding="UTF-8"?>
<svg version="1.1" xmlns="http://www.w3.org/2000/svg" width="781" height="567" viewBox="0 0 781 567">
<path d="M0 0 C110.55 0 221.1 0 335 0 C335 34.32 335 68.64 335 104 C224.45 104 113.9 104 0 104 C0 69.68 0 35.36 0 0 Z " fill="#FF8D41" transform="translate(369,409)"/>
<path d="M0 0 C110.55 0 221.1 0 335 0 C335 34.32 335 68.64 335 104 C224.45 104 113.9 104 0 104 C0 69.68 0 35.36 0 0 Z " fill="#FF8D41" transform="translate(369,409)"/>
<path d="M0 0 C110.55 0 221.1 0 335 0 C335 34.32 335 68.64 335 104 C224.45 104 113.9 104 0 104 C0 69.68 0 35.36 0 0 Z " fill="#FF8D41" transform="translate(369,44)"/>
<path d="M0 0 C104.61 0 209.22 0 317 0 C317 33.99 317 67.98 317 103 C212.39 103 107.78 103 0 103 C0 69.01 0 35.02 0 0 Z " fill="#FF8D41" transform="translate(73,227)"/>
<path d="M0 0 C92.4 0 184.8 0 280 0 C280 34.32 280 68.64 280 104 C187.6 104 95.2 104 0 104 C0 69.68 0 35.36 0 0 Z " fill="#FF8D41" transform="translate(73,409)"/>
<path d="M0 0 C92.4 0 184.8 0 280 0 C280 34.32 280 68.64 280 104 C187.6 104 95.2 104 0 104 C0 69.68 0 35.36 0 0 Z " fill="#FF8D41" transform="translate(73,44)"/>
<path d="M0 0 C34.32 0 68.64 0 104 0 C104 85.47 104 170.94 104 259 C69.68 259 35.36 259 0 259 C0 173.53 0 88.06 0 0 Z " fill="#FF8D41" transform="translate(600,149)"/>
<path d="M0 0 C33.99 0 67.98 0 103 0 C103 25.41 103 50.82 103 77 C69.01 77 35.02 77 0 77 C0 51.59 0 26.18 0 0 Z " fill="#FF8D41" transform="translate(73,331)"/>
<path d="M0 0 C33.99 0 67.98 0 103 0 C103 25.41 103 50.82 103 77 C69.01 77 35.02 77 0 77 C0 51.59 0 26.18 0 0 Z " fill="#FF8D41" transform="translate(73,149)"/>
<path d="M0 0 C4.13052727 2.15131628 5.61684159 4.71720824 7.37158203 8.96899414 C8.49499324 12.59978586 8.47252586 16.16425976 8.4375 19.9375 C8.4674707 21.07735352 8.4674707 21.07735352 8.49804688 22.24023438 C8.49240674 28.84483077 6.73940102 34.17096623 2.08984375 38.97265625 C-2.06747074 41.01634543 -6.5013032 40.58155516 -11 40 C-14.73473924 38.13263038 -15.75889079 36.42401965 -17.8125 32.8125 C-20.3679114 25.01408935 -20.78074794 13.63307269 -17.25 6.125 C-12.4458741 -0.54739709 -7.91000201 -1.03429447 0 0 Z " fill="#FFFAF8" transform="translate(654,60)"/>
<path d="M0 0 C15 0 15 0 21 3 C25.9071863 8.30506627 26.22818465 12.75744712 26.3125 19.75 C26.34150391 20.53632813 26.37050781 21.32265625 26.40039062 22.1328125 C26.46299101 27.93057105 25.5304334 31.33959372 22 36 C16 39 16 39 0 39 C0 26.13 0 13.26 0 0 Z " fill="#FFFBF9" transform="translate(186,455)"/>
<path d="M0 0 C17 0 17 0 23 3 C25.76098575 6.89410707 25.70842382 11.4036788 25 16 C23.125 18.5625 23.125 18.5625 21 20 C20.34 20 19.68 20 19 20 C19.27263672 20.50450684 19.54527344 21.00901367 19.82617188 21.52880859 C21.05507786 23.80858674 22.27760374 26.0917253 23.5 28.375 C23.92925781 29.1690625 24.35851562 29.963125 24.80078125 30.78125 C25.40986328 31.92207031 25.40986328 31.92207031 26.03125 33.0859375 C26.40830078 33.7876709 26.78535156 34.4894043 27.17382812 35.21240234 C28 37 28 37 28 39 C25.03 39 22.06 39 19 39 C18.54109375 38.00097656 18.0821875 37.00195312 17.609375 35.97265625 C16.99033235 34.66891492 16.37049936 33.36554866 15.75 32.0625 C15.44964844 31.40314453 15.14929688 30.74378906 14.83984375 30.06445312 C13.83727132 27.90589641 13.83727132 27.90589641 12 25 C10.68 24.67 9.36 24.34 8 24 C8 29.28 8 34.56 8 40 C5.36 40 2.72 40 0 40 C0 26.8 0 13.6 0 0 Z " fill="#FFFAF7" transform="translate(604,60)"/>
<path d="M0 0 C17 0 17 0 23 3 C25.76098575 6.89410707 25.70842382 11.4036788 25 16 C23.125 18.5625 23.125 18.5625 21 20 C20.34 20 19.68 20 19 20 C19.27263672 20.50450684 19.54527344 21.00901367 19.82617188 21.52880859 C21.05507786 23.80858674 22.27760374 26.0917253 23.5 28.375 C23.92925781 29.1690625 24.35851562 29.963125 24.80078125 30.78125 C25.40986328 31.92207031 25.40986328 31.92207031 26.03125 33.0859375 C26.40830078 33.7876709 26.78535156 34.4894043 27.17382812 35.21240234 C28 37 28 37 28 39 C25.03 39 22.06 39 19 39 C18.54109375 38.00097656 18.0821875 37.00195312 17.609375 35.97265625 C16.99033235 34.66891492 16.37049936 33.36554866 15.75 32.0625 C15.44964844 31.40314453 15.14929688 30.74378906 14.83984375 30.06445312 C13.83727132 27.90589641 13.83727132 27.90589641 12 25 C10.68 24.67 9.36 24.34 8 24 C8 29.28 8 34.56 8 40 C5.36 40 2.72 40 0 40 C0 26.8 0 13.6 0 0 Z " fill="#FFFAF7" transform="translate(189,60)"/>
<path d="M0 0 C17 0 17 0 23 4 C25.45717992 7.68576988 25.69957317 10.71927846 25 15 C23.125 18 23.125 18 21 20 C20.34 20 19.68 20 19 20 C19.5775 21.03640625 20.155 22.0728125 20.75 23.140625 C21.50043901 24.5101762 22.25041488 25.87998125 23 27.25 C23.3815625 27.93191406 23.763125 28.61382812 24.15625 29.31640625 C24.5171875 29.98027344 24.878125 30.64414063 25.25 31.328125 C25.58515625 31.9355957 25.9203125 32.54306641 26.265625 33.16894531 C27 35 27 35 27 39 C24.36 39 21.72 39 19 39 C18.55269531 38.00097656 18.10539063 37.00195312 17.64453125 35.97265625 C17.03482251 34.66881757 16.4240918 33.36545645 15.8125 32.0625 C15.37454102 31.0734668 15.37454102 31.0734668 14.92773438 30.06445312 C13.93981122 27.89227139 13.93981122 27.89227139 12 25 C10.35 24.67 8.7 24.34 7 24 C7 28.95 7 33.9 7 39 C4.69 39 2.38 39 0 39 C0 26.13 0 13.26 0 0 Z " fill="#FFFBF9" transform="translate(572,60)"/>
<path d="M0 0 C17 0 17 0 23 3 C26.23785576 6.66956986 26.47309273 10.13792717 26.27734375 14.8515625 C25.87325479 17.98182907 25.13374252 19.65976627 23 22 C17.78377992 24.96608593 13.8217654 25.30640871 8 25 C8 29.62 8 34.24 8 39 C5.36 39 2.72 39 0 39 C0 26.13 0 13.26 0 0 Z " fill="#FFFAF7" transform="translate(508,60)"/>
<path d="M0 0 C2.64 0 5.28 0 8 0 C8 4.95 8 9.9 8 15 C10.97 15 13.94 15 17 15 C17 10.05 17 5.1 17 0 C19.64 0 22.28 0 25 0 C25 13.2 25 26.4 25 40 C22.36 40 19.72 40 17 40 C17 34.06 17 28.12 17 22 C14.03 22 11.06 22 8 22 C8 27.61 8 33.22 8 39 C5.36 39 2.72 39 0 39 C0 26.13 0 13.26 0 0 Z " fill="#FFFAF7" transform="translate(443,60)"/>
<path d="M0 0 C3.3 0 6.6 0 10 0 C15.85741861 20.32524259 15.85741861 20.32524259 18.375 29.625 C18.69210937 30.79289062 19.00921875 31.96078125 19.3359375 33.1640625 C20 36 20 36 20 39 C17.36 39 14.72 39 12 39 C11.34 36.03 10.68 33.06 10 30 C6.7 30 3.4 30 0 30 C-0.66 32.97 -1.32 35.94 -2 39 C-4.64 39 -7.28 39 -10 39 C-8.74802564 31.42647567 -7.06896466 24.07739109 -5 16.6875 C-4.60941406 15.2634082 -4.60941406 15.2634082 -4.2109375 13.81054688 C-2.926263 9.16171213 -1.58759554 4.5567045 0 0 Z " fill="#FFF9F5" transform="translate(483,60)"/>
<path d="M0 0 C3.3 0 6.6 0 10 0 C12.60918801 8.13452732 14.97322551 16.32962941 17.25 24.5625 C17.52021973 25.52623535 17.79043945 26.4899707 18.06884766 27.48291016 C18.31940918 28.39733887 18.5699707 29.31176758 18.828125 30.25390625 C19.0540332 31.07189697 19.27994141 31.8898877 19.51269531 32.73266602 C20 35 20 35 20 39 C17.36 39 14.72 39 12 39 C11.34 36.03 10.68 33.06 10 30 C6.7 30 3.4 30 0 30 C-0.66 32.97 -1.32 35.94 -2 39 C-4.64 39 -7.28 39 -10 39 C-7.04460204 25.89194083 -3.59917699 12.94503989 0 0 Z " fill="#FFF9F5" transform="translate(547,60)"/>
<path d="M0 0 C8.25 0 16.5 0 25 0 C25 2.31 25 4.62 25 7 C19.72 7 14.44 7 9 7 C9 9.97 9 12.94 9 16 C13.62 16 18.24 16 23 16 C23 17.98 23 19.96 23 22 C18.05 22 13.1 22 8 22 C8 25.63 8 29.26 8 33 C13.61 33 19.22 33 25 33 C25 35.31 25 37.62 25 40 C16.75 40 8.5 40 0 40 C0 26.8 0 13.6 0 0 Z " fill="#FFF7F2" transform="translate(157,60)"/>
<path d="M0 0 C8.25 0 16.5 0 25 0 C25 2.31 25 4.62 25 7 C19.39 7 13.78 7 8 7 C8 9.97 8 12.94 8 16 C12.62 16 17.24 16 22 16 C22 17.98 22 19.96 22 22 C17.38 22 12.76 22 8 22 C8 25.63 8 29.26 8 33 C13.28 33 18.56 33 24 33 C24 34.98 24 36.96 24 39 C16.08 39 8.16 39 0 39 C0 26.13 0 13.26 0 0 Z " fill="#FFFCFA" transform="translate(219,455)"/>
<path d="M0 0 C2.97 0 5.94 0 9 0 C9.84158017 3.89409888 10.6718106 7.79053312 11.5 11.6875 C11.73847656 12.79029297 11.97695313 13.89308594 12.22265625 15.02929688 C12.44824219 16.09599609 12.67382812 17.16269531 12.90625 18.26171875 C13.11572266 19.24100342 13.32519531 20.22028809 13.54101562 21.22924805 C13.9800481 23.87955633 14.08555667 26.31993732 14 29 C14.66 29 15.32 29 16 29 C16.0825 27.741875 16.165 26.48375 16.25 25.1875 C17.07522451 16.6766024 19.15972051 8.33689405 21 0 C23.64 0 26.28 0 29 0 C28.51330978 8.61810202 26.52959508 16.77720104 24.4375 25.125 C24.10418953 26.47640772 23.77150277 27.82796943 23.43945312 29.1796875 C22.6323998 32.45468648 21.81911651 35.7280013 21 39 C17.04 39 13.08 39 9 39 C7.71533826 33.7679645 6.43366522 28.53520955 5.15478516 23.30175781 C4.71908813 21.52063097 4.28256774 19.73970534 3.84521484 17.95898438 C3.21757102 15.40286575 2.59286901 12.84604373 1.96875 10.2890625 C1.67345398 9.09055161 1.67345398 9.09055161 1.37219238 7.86782837 C0 2.22774341 0 2.22774341 0 0 Z " fill="#FFF8F4" transform="translate(248,455)"/>
<path d="M0 0 C3.3 0 6.6 0 10 0 C11.2867459 4.50094895 12.56835249 9.0033173 13.84521484 13.50708008 C14.28032684 15.03905718 14.71684147 16.57063663 15.15478516 18.10180664 C15.78396725 20.30251724 16.4080942 22.50460776 17.03125 24.70703125 C17.22811401 25.39150833 17.42497803 26.07598541 17.62780762 26.78120422 C18.42815192 29.62586638 19 32.02779076 19 35 C16.69 35 14.38 35 12 35 C10.50178941 31.62902617 10 29.79557881 10 26 C6.7 26 3.4 26 0 26 C-0.33 28.97 -0.66 31.94 -1 35 C-3.31 35 -5.62 35 -8 35 C-7.40663172 27.1859248 -5.542899 19.97107623 -3.4375 12.4375 C-3.10814453 11.23802734 -2.77878906 10.03855469 -2.43945312 8.80273438 C-1.63235278 5.86676067 -0.81907471 2.93265122 0 0 Z " fill="#FFF8F4" transform="translate(613,461)"/>
<path d="M0 0 C2.31 0 4.62 0 7 0 C7.33 3.96 7.66 7.92 8 12 C8.556875 11.13375 9.11375 10.2675 9.6875 9.375 C15.7158295 0.43016549 15.7158295 0.43016549 19.37890625 -0.796875 C21.5625 -0.75 21.5625 -0.75 25 0 C23.13460005 4.1971499 20.28388406 7.26725722 17.265625 10.68359375 C15.71066038 12.91780658 15.71066038 12.91780658 16.5390625 15.3046875 C17.02117188 16.19414062 17.50328125 17.08359375 18 18 C18.30615234 18.58370361 18.61230469 19.16740723 18.92773438 19.76879883 C20.3372156 22.44268751 21.79523974 25.08902506 23.25390625 27.73632812 C26 32.79095124 26 32.79095124 26 35 C23.36 35 20.72 35 18 35 C16.82823482 32.87767021 15.66245215 30.75242209 14.5 28.625 C14.16613281 28.02171875 13.83226562 27.4184375 13.48828125 26.796875 C11 22.2265625 11 22.2265625 11 20 C10.34 20 9.68 20 9 20 C7.9458482 23.16245541 7.68724328 25.86948218 7.4375 29.1875 C7.35371094 30.27417969 7.26992188 31.36085938 7.18359375 32.48046875 C7.12300781 33.31191406 7.06242188 34.14335937 7 35 C4.69 35 2.38 35 0 35 C0 23.45 0 11.9 0 0 Z " fill="#FFFBF8" transform="translate(664,461)"/>
<path d="M0 0 C2.31 0 4.62 0 7 0 C7.02505615 0.77714355 7.0501123 1.55428711 7.07592773 2.35498047 C7.19166796 5.86183069 7.31449352 9.36839745 7.4375 12.875 C7.47681641 14.09832031 7.51613281 15.32164062 7.55664062 16.58203125 C7.61948242 18.33193359 7.61948242 18.33193359 7.68359375 20.1171875 C7.72025146 21.19597168 7.75690918 22.27475586 7.79467773 23.38623047 C7.83376643 25.98069536 7.83376643 25.98069536 9 28 C11.31 28 13.62 28 16 28 C16.33 18.76 16.66 9.52 17 0 C19.31 0 21.62 0 24 0 C24.11647041 4.54144994 24.18734502 9.08251394 24.25 13.625 C24.28351563 14.91019531 24.31703125 16.19539063 24.3515625 17.51953125 C24.47477167 29.40921574 24.47477167 29.40921574 20 34 C15.80888835 36.09555583 10.55233879 35.55842023 6 35 C3.02638914 32.78436838 1.63040207 31.26080415 0 28 C-0.08543895 25.89471067 -0.10714725 23.78668843 -0.09765625 21.6796875 C-0.09443359 20.42285156 -0.09121094 19.16601562 -0.08789062 17.87109375 C-0.07951172 16.55238281 -0.07113281 15.23367188 -0.0625 13.875 C-0.05748489 12.53515789 -0.05292201 11.195314 -0.04882812 9.85546875 C-0.03701086 6.57026794 -0.02053617 3.28515603 0 0 Z " fill="#FFFDFC" transform="translate(433,461)"/>
<path d="M0 0 C0.99 0.66 1.98 1.32 3 2 C3.40843923 4.71203652 3.13336867 7.2437142 3 10 C2.29875 9.67 1.5975 9.34 0.875 9 C-2.32035587 7.88857187 -4.63918352 7.70775509 -8 8 C-11.24849977 9.72226496 -11.24849977 9.72226496 -12 13 C-12.12070269 15.31019336 -12.175363 17.6241874 -12.1875 19.9375 C-12.20876953 21.77634766 -12.20876953 21.77634766 -12.23046875 23.65234375 C-12.01569806 26.77197896 -11.74816032 28.45443322 -10 31 C-7.21084611 32.39457694 -5.09726736 32.1821922 -2 32 C0.78566059 31.08742694 0.78566059 31.08742694 3 30 C3 32.97 3 35.94 3 39 C-2.40377436 40.80125812 -8.97644679 41.42998764 -14.23828125 38.94140625 C-18.60689921 35.48954324 -20.98840609 31.44984826 -22 26 C-22.76606085 17.99412463 -22.52433084 10.8021584 -17.6640625 4.1796875 C-12.69851938 -1.02807724 -6.85000762 -1.04152163 0 0 Z " fill="#FFF9F5" transform="translate(433,60)"/>
<path d="M0 0 C0.99 0.66 1.98 1.32 3 2 C3.40843923 4.71203652 3.13336867 7.2437142 3 10 C2.29875 9.67 1.5975 9.34 0.875 9 C-2.32035587 7.88857187 -4.63918352 7.70775509 -8 8 C-11.24849977 9.72226496 -11.24849977 9.72226496 -12 13 C-12.12070269 15.31019336 -12.175363 17.6241874 -12.1875 19.9375 C-12.20876953 21.77634766 -12.20876953 21.77634766 -12.23046875 23.65234375 C-12.01569806 26.77197896 -11.74816032 28.45443322 -10 31 C-7.21084611 32.39457694 -5.09726736 32.1821922 -2 32 C0.78566059 31.08742694 0.78566059 31.08742694 3 30 C3 32.97 3 35.94 3 39 C-2.40377436 40.80125812 -8.97644679 41.42998764 -14.23828125 38.94140625 C-18.60689921 35.48954324 -20.98840609 31.44984826 -22 26 C-22.76606085 17.99412463 -22.52433084 10.8021584 -17.6640625 4.1796875 C-12.69851938 -1.02807724 -6.85000762 -1.04152163 0 0 Z " fill="#FFF9F5" transform="translate(275,60)"/>
<path d="M0 0 C1.29550781 -0.02126953 1.29550781 -0.02126953 2.6171875 -0.04296875 C5.2491288 0.19890748 6.86480544 0.85766459 9.125 2.1875 C9.125 4.4975 9.125 6.8075 9.125 9.1875 C8.25875 8.8575 7.3925 8.5275 6.5 8.1875 C3.16781725 7.20018659 0.57340462 7.02329026 -2.875 7.1875 C-3.535 8.8375 -4.195 10.4875 -4.875 12.1875 C-4.28332031 12.36925781 -3.69164062 12.55101562 -3.08203125 12.73828125 C7.79994824 16.19992236 7.79994824 16.19992236 11.125 21.1875 C11.86465025 25.78021203 11.73461194 29.21212089 9.25 33.1875 C5.74621965 36.48517562 3.48629321 36.34839161 -1.25 36.375 C-2.96316406 36.39626953 -2.96316406 36.39626953 -4.7109375 36.41796875 C-7.71436816 36.19920034 -9.35425934 35.75830637 -11.875 34.1875 C-11.875 31.8775 -11.875 29.5675 -11.875 27.1875 C-11.05 27.5175 -10.225 27.8475 -9.375 28.1875 C-5.2876017 29.35532809 -2.10576656 29.3333885 2.125 29.1875 C3.13611093 26.13836772 3.13611093 26.13836772 2.125 23.1875 C0.54294801 22.52759125 -1.06659503 21.93270523 -2.6875 21.375 C-6.99747545 19.69170487 -9.72375384 18.48999231 -11.875 14.1875 C-12.46454638 11.37141439 -12.54945201 8.99299364 -11.875 6.1875 C-8.1759064 1.61230529 -5.76237091 0.04274756 0 0 Z " fill="#FFF9F5" transform="translate(560.875,459.8125)"/>
<path d="M0 0 C7.59 0 15.18 0 23 0 C23 1.98 23 3.96 23 6 C20.36 6 17.72 6 15 6 C15 14.91 15 23.82 15 33 C17.64 33 20.28 33 23 33 C23 34.98 23 36.96 23 39 C15.41 39 7.82 39 0 39 C0 37.02 0 35.04 0 33 C2.64 33 5.28 33 8 33 C8 24.09 8 15.18 8 6 C5.36 6 2.72 6 0 6 C0 4.02 0 2.04 0 0 Z " fill="#FFFEFD" transform="translate(222,60)"/>
<path d="M0 0 C1.17369141 -0.00386719 1.17369141 -0.00386719 2.37109375 -0.0078125 C4.5625 0.125 4.5625 0.125 7.5625 1.125 C7.5625 3.765 7.5625 6.405 7.5625 9.125 C6.5725 8.795 5.5825 8.465 4.5625 8.125 C3.16810336 8.05834624 1.77080125 8.03961801 0.375 8.0625 C-0.883125 8.083125 -2.14125 8.10375 -3.4375 8.125 C-6.81828446 14.21041203 -6.87626817 19.33141795 -5.4375 26.125 C-4.7775 27.115 -4.1175 28.105 -3.4375 29.125 C0.41369054 29.41027337 3.87242118 29.30582522 7.5625 28.125 C7.60491723 30.45794775 7.60342937 32.79202567 7.5625 35.125 C5.78177258 36.90572742 3.28606123 36.38115294 0.875 36.4375 C-4.40101318 36.37483951 -7.56526795 35.99723205 -11.4375 32.125 C-15.51908685 25.86656683 -15.28770904 18.38511835 -14.4375 11.125 C-11.63293354 4.35868206 -7.52357435 -0.02470796 0 0 Z " fill="#FFF8F4" transform="translate(650.4375,459.875)"/>
<path d="M0 0 C7.26 0 14.52 0 22 0 C22 1.65 22 3.3 22 5 C17.05 5 12.1 5 7 5 C7 7.97 7 10.94 7 14 C11.29 14 15.58 14 20 14 C20 15.65 20 17.3 20 19 C15.71 19 11.42 19 7 19 C7 24.28 7 29.56 7 35 C4.69 35 2.38 35 0 35 C0 23.45 0 11.9 0 0 Z " fill="#FFFEFE" transform="translate(406,461)"/>
<path d="M0 0 C2.64 0 5.28 0 8 0 C8 9.9 8 19.8 8 30 C12.62 30 17.24 30 22 30 C22 31.98 22 33.96 22 36 C14.74 36 7.48 36 0 36 C0 24.12 0 12.24 0 0 Z " fill="#FFF5EF" transform="translate(493,460)"/>
<path d="M0 0 C2.64 0 5.28 0 8 0 C8 9.57 8 19.14 8 29 C12.95 29 17.9 29 23 29 C23 30.98 23 32.96 23 35 C15.41 35 7.82 35 0 35 C0 23.45 0 11.9 0 0 Z " fill="#FFF5EE" transform="translate(464,461)"/>
<path d="M0 0 C8.25 0 16.5 0 25 0 C25 1.65 25 3.3 25 5 C22.03 5 19.06 5 16 5 C16 14.9 16 24.8 16 35 C13.69 35 11.38 35 9 35 C9 25.1 9 15.2 9 5 C6.03 5 3.06 5 0 5 C0 3.35 0 1.7 0 0 Z " fill="#FFFEFD" transform="translate(577,461)"/>
<path d="M0 0 C2.375 -0.1875 2.375 -0.1875 5 0 C8.87474312 5.81211468 8.87767276 13.40463792 7.5859375 20.16796875 C6.34668803 24.65331197 6.34668803 24.65331197 5 26 C3.33382885 26.04063832 1.66611905 26.042721 0 26 C-3.61687897 19.36905522 -4.4623046 12.00881347 -2.3203125 4.671875 C-1.5 2.75 -1.5 2.75 0 0 Z " fill="#FF8E43" transform="translate(646,67)"/>
<path d="M0 0 C7 1 7 1 8.9375 3.3125 C10.68892544 9.39097651 11.22750274 15.8252717 8.9140625 21.80859375 C7 24 7 24 0 25 C0 16.75 0 8.5 0 0 Z " fill="#FF8E43" transform="translate(194,462)"/>
<path d="M0 0 C6.15234375 -0.09765625 6.15234375 -0.09765625 8 0 C9 1 9 1 9.09765625 3.06640625 C9.08605469 3.89011719 9.07445312 4.71382813 9.0625 5.5625 C9.05347656 6.38878906 9.04445313 7.21507813 9.03515625 8.06640625 C9.02355469 8.70449219 9.01195312 9.34257813 9 10 C6.04335481 11.4783226 3.25770263 11.06032783 0 11 C0 7.37 0 3.74 0 0 Z " fill="#FF8E43" transform="translate(516,67)"/>
<path d="M0 0 C6.15234375 -0.09765625 6.15234375 -0.09765625 8 0 C9 1 9 1 9.09765625 2.84765625 C9.04882812 5.92382812 9.04882812 5.92382812 9 9 C6.04335481 10.4783226 3.25770263 10.06032783 0 10 C0 6.7 0 3.4 0 0 Z " fill="#FF934C" transform="translate(579,67)"/>
<path d="M0 0 C3.375 -0.125 3.375 -0.125 7 0 C7.66 0.66 8.32 1.32 9 2 C8.75 5.5625 8.75 5.5625 8 9 C5.29120665 10.35439668 2.99066732 10.06501451 0 10 C0 6.7 0 3.4 0 0 Z " fill="#FF8E43" transform="translate(612,67)"/>
<path d="M0 0 C3.375 -0.125 3.375 -0.125 7 0 C7.66 0.66 8.32 1.32 9 2 C8.75 5.5625 8.75 5.5625 8 9 C5.29120665 10.35439668 2.99066732 10.06501451 0 10 C0 6.7 0 3.4 0 0 Z " fill="#FF8E43" transform="translate(197,67)"/>
<path d="M0 0 C2.10827055 3.16240582 2.33817465 4.50657469 2.625 8.1875 C2.69976563 9.08855469 2.77453125 9.98960938 2.8515625 10.91796875 C2.90054688 11.60503906 2.94953125 12.29210937 3 13 C1.02 13 -0.96 13 -3 13 C-2.69128878 11.20767663 -2.37790936 9.41615679 -2.0625 7.625 C-1.88847656 6.62726563 -1.71445312 5.62953125 -1.53515625 4.6015625 C-1 2 -1 2 0 0 Z " fill="#FF9147" transform="translate(552,70)"/>
<path d="M0 0 C0.66 0 1.32 0 2 0 C2.66 3.96 3.32 7.92 4 12 C2.02 12 0.04 12 -2 12 C-1 3.42857143 -1 3.42857143 0 0 Z " fill="#FF9047" transform="translate(487,71)"/>
<path d="M0 0 C0.66 0 1.32 0 2 0 C2.66 3.63 3.32 7.26 4 11 C2.02 11 0.04 11 -2 11 C-1.34 7.37 -0.68 3.74 0 0 Z " fill="#FF9148" transform="translate(617,470)"/>
</svg>
